<svg width="52" height="63" viewBox="0 0 52 63" fill="none" xmlns="http://www.w3.org/2000/svg">
<path d="M10.4521 37.3015L11.8044 29.5674H15.8819L15.6887 30.7039H13.0532L12.7013 32.6652H15.1782L14.985 33.8018H12.5081L11.8941 37.3085H10.459L10.4521 37.3015Z" fill="white"/>
<path d="M16.2546 32.8109C16.6547 30.8427 17.0687 29.3735 19.3662 29.3735C21.6636 29.3735 21.567 30.8358 21.2842 32.8109L21.091 33.9129C20.7322 35.9781 20.3114 37.4819 17.9518 37.4819C15.5922 37.4819 15.7026 35.9781 16.0614 33.9129L16.2546 32.8109ZM17.4068 34.6336C17.3033 35.2712 17.1722 36.3176 18.1588 36.3176C19.1454 36.3176 19.38 35.2573 19.511 34.5158L19.8491 32.5337C19.9595 31.9169 20.2286 30.5447 19.1592 30.5447C18.0277 30.5447 17.8828 31.8961 17.7862 32.4921L17.4068 34.6405V34.6336Z" fill="white"/>
<path d="M26.8518 34.5435C26.8242 34.689 26.7828 34.8415 26.7414 34.987C26.424 36.4008 25.7686 37.4819 24.161 37.4819C21.8015 37.4819 21.9119 35.9781 22.2706 33.9129L22.4638 32.8109C22.864 30.8427 23.2779 29.3735 25.5754 29.3735C26.8587 29.3943 27.4658 30.0527 27.3278 31.3764C27.3209 31.5704 27.3071 31.7714 27.2588 31.9654H25.8445C25.8721 31.4734 26.079 30.5447 25.3753 30.5447C24.2438 30.5447 24.0989 31.8961 24.0024 32.4921L23.6229 34.6405C23.5194 35.2781 23.3883 36.3246 24.3749 36.3246C25.1683 36.3246 25.2994 35.0425 25.4098 34.5504H26.8587L26.8518 34.5435Z" fill="white"/>
<path d="M32.3231 29.5605H33.7582L32.8129 34.9523C32.5163 36.6641 31.8194 37.4818 29.9359 37.4818C28.0524 37.4818 27.6247 36.6641 27.9213 34.9523L28.8665 29.5605H30.3016L29.3771 34.8345C29.246 35.576 29.1701 36.3175 30.1498 36.3175C31.1295 36.3175 31.2606 35.576 31.3917 34.8345L32.3162 29.5605H32.3231Z" fill="white"/>
<path d="M37.6769 31.9173C37.808 31.2243 37.8632 30.5451 37.0698 30.5451C36.5868 30.5451 36.2487 30.7392 36.1591 31.2659C36.0556 31.855 36.3867 32.0837 36.7869 32.3678C37.2078 32.6658 37.9805 33.2479 38.3185 33.636C38.7187 34.1212 38.7877 34.5855 38.6773 35.2577C38.422 36.72 37.3181 37.4893 35.9176 37.4893C34.1928 37.4893 33.7374 36.519 33.9858 35.1399L34.0893 34.5716H35.5243L35.4415 35.0221C35.2759 35.7775 35.4139 36.325 36.1177 36.325C36.7248 36.325 37.0629 36.0062 37.1664 35.4171C37.2491 34.9666 37.0974 34.6548 36.7731 34.3984C36.1246 33.8093 35.2621 33.3865 34.8137 32.6104C34.6412 32.2569 34.5791 31.8342 34.6481 31.4253C34.8827 30.1016 35.7451 29.3809 37.2698 29.3809C39.5604 29.3809 39.1878 31.155 39.0637 31.9173H37.6769Z" fill="white"/>
<path d="M16.0062 43.8226C16.0131 44.5988 15.9165 45.5898 15.8406 46.5739H15.8613C15.9096 46.3868 15.951 46.1997 16.0062 46.0195C16.1787 45.3611 16.3581 44.6958 16.572 44.0374L17.8897 39.8169H19.38L16.5996 47.5511H14.8747L14.8333 44.4948C14.8195 43.677 14.9161 42.8523 14.9575 42.0276H14.9368C14.6885 42.8523 14.4953 43.677 14.1986 44.4948L13.1499 47.5511H11.4251L11.3147 39.8169H12.8049L12.7153 44.0374C12.7015 44.6958 12.6532 45.3611 12.5842 46.0195C12.5704 46.2066 12.5566 46.3937 12.5359 46.5739H12.5566C12.8463 45.5829 13.0878 44.5918 13.3707 43.8226L14.7643 39.8238H15.9579L16.0269 43.8226H16.0062Z" fill="white"/>
<path d="M18.1587 47.5584L21.3531 39.8242H23.2918L23.685 47.5584H22.1465L22.1051 45.5971H20.4217L19.7041 47.5584H18.1656H18.1587ZM20.8494 44.4606H22.0844V42.2637C22.0775 41.9033 22.1051 41.5499 22.1258 41.1895C22.1465 41.0162 22.1534 40.836 22.1672 40.6766H22.1465C22.0982 40.843 22.043 41.0162 22.0016 41.1895C21.8981 41.5499 21.8084 41.9033 21.6635 42.2637L20.8494 44.4606Z" fill="white"/>
<path d="M24.4785 47.5584L25.8308 39.8242H27.2658L26.1068 46.4288H28.7768L28.5836 47.5653H24.4785V47.5584Z" fill="white"/>
<path d="M29.6116 47.5584L30.9638 39.8242H32.3989L31.2398 46.4288H33.9098L33.7167 47.5653H29.6116V47.5584Z" fill="white"/>
<path d="M11.8252 57.8152H10.3901L11.7424 50.0811H14.033L14.1778 53.6709C14.1985 54.26 14.1779 54.856 14.1296 55.4589H14.1503C14.3572 54.6966 14.5021 54.1768 14.6953 53.6709L16.089 50.0811H18.3657L17.0135 57.8152H15.5784L16.0131 55.3827C16.2821 53.8442 16.5788 52.3057 16.9376 50.7741H16.9169L14.1434 57.8221H13.2671L12.9912 50.7741H12.9429C12.7704 52.3126 12.5358 53.8511 12.2667 55.3827L11.8321 57.8152H11.8252Z" fill="white"/>
<path d="M17.7793 57.8152L20.9737 50.0811H22.9124L23.3056 57.8152H21.7671L21.7257 55.854H20.0423L19.3247 57.8152H17.7862H17.7793ZM20.47 54.7174H21.705V52.5205C21.6981 52.1601 21.7257 51.8067 21.7464 51.4463C21.7671 51.2731 21.774 51.0929 21.7878 50.9335H21.7671C21.7188 51.0998 21.6636 51.2731 21.6222 51.4463C21.5187 51.8067 21.429 52.1601 21.2841 52.5205L20.47 54.7174Z" fill="white"/>
<path d="M26.0999 54.4818L25.5134 57.8152H24.0784L25.4306 50.0811H28.149C29.3908 50.0811 30.267 50.5177 30.0049 51.9384C29.86 52.7839 29.4943 53.6709 28.5077 53.8026L28.4939 53.8234C29.3287 53.9343 29.4874 54.4818 29.3563 55.2233C29.308 55.5421 28.9217 57.441 29.2321 57.6697L29.2114 57.8152H27.6315C27.5418 57.3232 27.7419 56.3737 27.8178 55.854C27.9006 55.3827 28.0248 54.7313 27.5487 54.5857C27.1762 54.4748 26.7553 54.4818 26.3482 54.4818H26.093H26.0999ZM26.293 53.3452H27.4245C27.9075 53.3175 28.3283 53.0056 28.4594 52.2294C28.6112 51.3632 28.2869 51.2176 27.7419 51.2107H26.6725L26.293 53.3452Z" fill="white"/>
<path d="M30.3704 57.8152L31.7227 50.0811H33.1577L32.5644 53.5185H32.5851C32.9163 52.9086 33.4061 52.2294 33.8063 51.6612L34.924 50.0811H36.5453L34.0615 53.4006L35.2827 57.8152H33.6614L32.8404 54.759L32.1918 55.5975L31.7986 57.8152H30.3635H30.3704Z" fill="white"/>
<path d="M36.0417 57.8152L37.4009 50.0811H41.4439L41.2507 51.2176H38.6428L38.3047 53.165H40.7057L40.4987 54.3016H38.0977L37.6769 56.6856H40.2848L40.0916 57.8221H36.0486L36.0417 57.8152Z" fill="white"/>
<path d="M42.0511 50.0811H46.8461L46.6529 51.2176H44.9764L43.8173 57.8221H42.3823L43.5413 51.2176H41.8579L42.0511 50.0811Z" fill="white"/>
<path fill-rule="evenodd" clip-rule="evenodd" d="M52 37.4513L50.6822 38.1392L50.3994 3.89105L5.16067 27.6612L5.49184 61.8746L4.19477 62.5625V62.5417L4.18787 62.5555L0.331166 60.8115L0.338066 60.7976L0.324267 60.8046L0 25.132L47.8052 0V0.0069483L47.8121 0L51.6688 1.75097L52 37.4513Z" fill="white"/>
</svg>
